0
SECTION
2
HEADER
9
$INSUNITS
70
4
9
$ACADVER
1
AC1014
9
$HANDSEED
5
FFFF
0
ENDSEC
0
SECTION
2
TABLES
0
TABLE
2
VPORT
5
8
100
AcDbSymbolTable
0
ENDTAB
0
TABLE
2
LTYPE
5
5
100
AcDbSymbolTable
0
LTYPE
5
14
100
AcDbSymbolTableRecord
100
AcDbLinetypeTableRecord
2
BYBLOCK
70
0
0
LTYPE
5
15
100
AcDbSymbolTableRecord
100
AcDbLinetypeTableRecord
2
BYLAYER
70
0
0
LTYPE
5
16
100
AcDbSymbolTableRecord
100
AcDbLinetypeTableRecord
2
DASHED
70
0
3
Dashed __ __ __ __ __ __ __ __ __ __ __ __ __ _
72
65
73
2
40
0.75
49
0.5
74
0
49
-0.25
74
0
0
ENDTAB
0
TABLE
2
LAYER
5
2
100
AcDbSymbolTable
70
2
0
LAYER
5
50
100
AcDbSymbolTableRecord
100
AcDbLayerTableRecord
2
0
70
0
62
7
6
CONTINUOUS
0
ENDTAB
0
TABLE
2
STYLE
5
3
100
AcDbSymbolTable
70
1
0
STYLE
5
11
100
AcDbSymbolTableRecord
100
AcDbTextStyleTableRecord
2
STANDARD
70
0
0
ENDTAB
0
TABLE
2
VIEW
5
6
100
AcDbSymbolTable
70
0
0
ENDTAB
0
TABLE
2
UCS
5
7
100
AcDbSymbolTable
70
0
0
ENDTAB
0
TABLE
2
APPID
5
9
100
AcDbSymbolTable
70
2
0
APPID
5
12
100
AcDbSymbolTableRecord
100
AcDbRegAppTableRecord
2
ACAD
70
0
0
ENDTAB
0
TABLE
2
DIMSTYLE
5
A
100
AcDbSymbolTable
70
1
0
ENDTAB
0
TABLE
2
BLOCK_RECORD
5
1
100
AcDbSymbolTable
70
1
0
BLOCK_RECORD
5
1F
100
AcDbSymbolTableRecord
100
AcDbBlockTableRecord
2
*MODEL_SPACE
0
BLOCK_RECORD
5
1B
100
AcDbSymbolTableRecord
100
AcDbBlockTableRecord
2
*PAPER_SPACE
0
ENDTAB
0
ENDSEC
0
SECTION
2
BLOCKS
0
BLOCK
5
20
100
AcDbEntity
100
AcDbBlockBegin
2
*MODEL_SPACE
0
ENDBLK
5
21
100
AcDbEntity
100
AcDbBlockEnd
0
BLOCK
5
1C
100
AcDbEntity
100
AcDbBlockBegin
2
*PAPER_SPACE
0
ENDBLK
5
1D
100
AcDbEntity
100
AcDbBlockEnd
0
ENDSEC
0
SECTION
2
ENTITIES
0
LWPOLYLINE
5
100
100
AcDbEntity
8
0
100
AcDbPolyline
90
8
70
1
43
0.0
10
26.324999999999999
20
15.249999999999964
42
0.41421356237309453
10
25.124999999999993
20
14.049999999999962
10
25.124999999999996
20
13.14999999999997
42
0.41421356237309614
10
26.324999999999999
20
11.949999999999971
10
33.074999999999996
20
11.949999999999971
42
0.41421356237309453
10
34.274999999999999
20
13.149999999999974
10
34.274999999999999
20
14.049999999999972
42
0.41421356237309453
10
33.074999999999996
20
15.24999999999997
0
LWPOLYLINE
5
101
100
AcDbEntity
8
0
100
AcDbPolyline
90
8
70
1
43
0.0
10
-25.124999999999996
20
14.049999999999962
42
0.41421356237309503
10
-26.324999999999999
20
15.249999999999964
10
-33.074999999999996
20
15.249999999999972
42
0.41421356237309503
10
-34.274999999999999
20
14.049999999999972
10
-34.274999999999999
20
13.149999999999974
42
0.41421356237309503
10
-33.074999999999996
20
11.949999999999974
10
-26.324999999999999
20
11.949999999999971
42
0.41421356237309503
10
-25.124999999999996
20
13.14999999999997
0
LWPOLYLINE
5
102
100
AcDbEntity
8
0
100
AcDbPolyline
90
4
70
1
43
0.0
10
-25.500000000000004
20
27.099999999999994
10
25.500000000000004
20
27.099999999999994
42
-0.99999999999999989
10
25.500000000000004
20
24.899999999999999
10
-25.500000000000004
20
24.899999999999999
42
-0.99999999999999989
0
CIRCLE
5
103
100
AcDbEntity
8
0
100
AcDbCircle
10
-11.500000000000611
20
49.499999999963087
30
0
40
2.8500000000000005
210
0
220
-0
230
1
0
CIRCLE
5
104
100
AcDbEntity
8
0
100
AcDbCircle
10
-9.5097767527908947e-15
20
-2.0000000000000173
30
0
40
1.8500000000000003
210
0
220
-0
230
1
0
CIRCLE
5
105
100
AcDbEntity
8
0
100
AcDbCircle
10
28.750000000000018
20
38.5
30
0
40
2.850000000000001
210
0
220
-0
230
1
0
CIRCLE
5
106
100
AcDbEntity
8
0
100
AcDbCircle
10
6.4999999999999991
20
-46.000000000000007
30
0
40
3.1000000000000005
210
0
220
-0
230
1
0
CIRCLE
5
107
100
AcDbEntity
8
0
100
AcDbCircle
10
-19.5
20
-49
30
0
40
3.1000000000000005
210
0
220
-0
230
1
0
CIRCLE
5
108
100
AcDbEntity
8
0
100
AcDbCircle
10
-6.5000000000000044
20
-46.000000000000007
30
0
40
3.1000000000000005
210
0
220
-0
230
1
0
CIRCLE
5
109
100
AcDbEntity
8
0
100
AcDbCircle
10
-34.499999999999986
20
49.500000000000057
30
0
40
2.850000000000001
210
0
220
-0
230
1
0
CIRCLE
5
110
100
AcDbEntity
8
0
100
AcDbCircle
10
32.5
20
26.000000000000007
30
0
40
1.6000000000000014
210
0
220
-0
230
1
0
CIRCLE
5
111
100
AcDbEntity
8
0
100
AcDbCircle
10
32.5
20
-16.000000000000004
30
0
40
3.5000000000000009
210
0
220
-0
230
1
0
CIRCLE
5
112
100
AcDbEntity
8
0
100
AcDbCircle
10
-6.500000000000008
20
-36.000000000000007
30
0
40
3.1000000000000005
210
0
220
-0
230
1
0
CIRCLE
5
113
100
AcDbEntity
8
0
100
AcDbCircle
10
-23
20
49.500000000000036
30
0
40
2.850000000000001
210
0
220
-0
230
1
0
CIRCLE
5
114
100
AcDbEntity
8
0
100
AcDbCircle
10
19.499999999999996
20
-39
30
0
40
3.1000000000000005
210
0
220
-0
230
1
0
CIRCLE
5
115
100
AcDbEntity
8
0
100
AcDbCircle
10
-19.500000000000011
20
-39
30
0
40
3.1000000000000005
210
0
220
-0
230
1
0
CIRCLE
5
116
100
AcDbEntity
8
0
100
AcDbCircle
10
6.6615957047252831e-15
20
11.999999999999984
30
0
40
1.8500000000000003
210
0
220
-0
230
1
0
CIRCLE
5
117
100
AcDbEntity
8
0
100
AcDbCircle
10
11.500000000000011
20
49.5
30
0
40
2.8499999999999992
210
0
220
-0
230
1
0
CIRCLE
5
118
100
AcDbEntity
8
0
100
AcDbCircle
10
34.500000000000014
20
49.5
30
0
40
2.850000000000001
210
0
220
-0
230
1
0
CIRCLE
5
119
100
AcDbEntity
8
0
100
AcDbCircle
10
19.5
20
-49
30
0
40
3.1000000000000005
210
0
220
-0
230
1
0
CIRCLE
5
120
100
AcDbEntity
8
0
100
AcDbCircle
10
-5.7499999999999885
20
38.5
30
0
40
2.8500000000000005
210
0
220
-0
230
1
0
CIRCLE
5
121
100
AcDbEntity
8
0
100
AcDbCircle
10
-28.749999999999993
20
38.499999999999993
30
0
40
2.850000000000001
210
0
220
-0
230
1
0
CIRCLE
5
122
100
AcDbEntity
8
0
100
AcDbCircle
10
32.5
20
1.9999999999999973
30
0
40
3.5000000000000009
210
0
220
-0
230
1
0
CIRCLE
5
123
100
AcDbEntity
8
0
100
AcDbCircle
10
-32.500000000000014
20
-39.000000000000007
30
0
40
3.1000000000000005
210
0
220
-0
230
1
0
CIRCLE
5
124
100
AcDbEntity
8
0
100
AcDbCircle
10
-3.4726100776430239e-12
20
49.49999999996308
30
0
40
2.8500000000000005
210
0
220
-0
230
1
0
CIRCLE
5
125
100
AcDbEntity
8
0
100
AcDbCircle
10
-32.5
20
25.999999999999996
30
0
40
1.6000000000000014
210
0
220
-0
230
1
0
CIRCLE
5
126
100
AcDbEntity
8
0
100
AcDbCircle
10
-32.499999999999993
20
1.9999999999999973
30
0
40
3.5000000000000009
210
0
220
-0
230
1
0
CIRCLE
5
127
100
AcDbEntity
8
0
100
AcDbCircle
10
5.7500000000000107
20
38.5
30
0
40
2.8500000000000005
210
0
220
-0
230
1
0
CIRCLE
5
128
100
AcDbEntity
8
0
100
AcDbCircle
10
17.250000000000014
20
38.5
30
0
40
2.850000000000001
210
0
220
-0
230
1
0
CIRCLE
5
129
100
AcDbEntity
8
0
100
AcDbCircle
10
3.1086244689504383e-14
20
-16.000000000000018
30
0
40
1.8500000000000003
210
0
220
-0
230
1
0
CIRCLE
5
130
100
AcDbEntity
8
0
100
AcDbCircle
10
32.5
20
-39
30
0
40
3.1000000000000005
210
0
220
-0
230
1
0
CIRCLE
5
131
100
AcDbEntity
8
0
100
AcDbCircle
10
14.5
20
1.9999999999999973
30
0
40
3.5000000000000009
210
0
220
-0
230
1
0
CIRCLE
5
132
100
AcDbEntity
8
0
100
AcDbCircle
10
32.499999999999993
20
-49
30
0
40
3.1000000000000005
210
0
220
-0
230
1
0
CIRCLE
5
133
100
AcDbEntity
8
0
100
AcDbCircle
10
22.999999999998852
20
49.499999999987736
30
0
40
2.850000000000001
210
0
220
-0
230
1
0
CIRCLE
5
134
100
AcDbEntity
8
0
100
AcDbCircle
10
-14.499999999999986
20
-16.000000000000007
30
0
40
3.5000000000000009
210
0
220
-0
230
1
0
CIRCLE
5
135
100
AcDbEntity
8
0
100
AcDbCircle
10
14.5
20
-16.000000000000007
30
0
40
3.5000000000000009
210
0
220
-0
230
1
0
CIRCLE
5
136
100
AcDbEntity
8
0
100
AcDbCircle
10
6.4999999999999947
20
-36.000000000000007
30
0
40
3.1000000000000005
210
0
220
-0
230
1
0
CIRCLE
5
137
100
AcDbEntity
8
0
100
AcDbCircle
10
-14.499999999999986
20
1.9999999999999973
30
0
40
3.5000000000000009
210
0
220
-0
230
1
0
CIRCLE
5
138
100
AcDbEntity
8
0
100
AcDbCircle
10
-32.499999999999993
20
-16.000000000000007
30
0
40
3.5000000000000009
210
0
220
-0
230
1
0
CIRCLE
5
139
100
AcDbEntity
8
0
100
AcDbCircle
10
-17.249999999999986
20
38.5
30
0
40
2.850000000000001
210
0
220
-0
230
1
0
CIRCLE
5
140
100
AcDbEntity
8
0
100
AcDbCircle
10
-32.5
20
-49
30
0
40
3.1000000000000005
210
0
220
-0
230
1
0
LWPOLYLINE
5
141
100
AcDbEntity
8
0
100
AcDbPolyline
90
4
70
1
43
0.0
10
-31.645000000000152
20
59.699999999945547
42
0.99999999999999989
10
-31.644999999992713
20
62.800000000047845
10
-34.394999999960746
20
62.799999999986731
42
0.99999999999999989
10
-34.394999999926981
20
59.699999999989295
0
LWPOLYLINE
5
142
100
AcDbEntity
8
0
100
AcDbPolyline
90
4
70
1
43
0.0
10
-31.645000000004782
20
-62.800000000009355
42
0.99999999999999989
10
-31.645000000033747
20
-59.699999999995015
10
-34.394999999956411
20
-59.699999999958273
42
0.99999999999999989
10
-34.394999999976797
20
-62.8000000000103
0
LWPOLYLINE
5
143
100
AcDbEntity
8
0
100
AcDbPolyline
90
4
70
1
43
0.0
10
34.394999999980939
20
-62.800000000004474
42
0.99999999999999989
10
34.395000000024766
20
-59.700000000001872
10
31.64499999999013
20
-59.700000000005275
42
0.99999999999999989
10
31.644999999980943
20
-62.800000000000168
0
LWPOLYLINE
5
144
100
AcDbEntity
8
0
100
AcDbPolyline
90
4
70
1
43
0.0
10
34.394999999992251
20
59.699999999976257
42
0.99999999999999989
10
34.394999999906872
20
62.800000000020034
10
31.645000000059468
20
62.799999999985729
42
0.99999999999999989
10
31.645000000021433
20
59.700000000009737
0
LWPOLYLINE
5
145
100
AcDbEntity
8
0
100
AcDbPolyline
90
4
70
1
43
0.0
10
40.5
20
64.249999999999972
10
-40.5
20
64.25
10
-40.5
20
-64.250000000000028
10
40.5
20
-64.25
0
ENDSEC
0
SECTION
2
OBJECTS
0
DICTIONARY
5
C
100
AcDbDictionary
3
ACAD_GROUP
350
D
3
ACAD_MLINESTYLE
350
17
0
DICTIONARY
5
D
100
AcDbDictionary
0
DICTIONARY
5
1A
330
C
100
AcDbDictionary
0
DICTIONARY
5
17
100
AcDbDictionary
0
ENDSEC
0
EOF
