<svg xmlns="http://www.w3.org/2000/svg" viewBox="0 0 902 540" width="902" height="540">
  <style>
    .frame { fill: none; stroke: #d8d8d8; stroke-width: 1; }
    .axis  { stroke: #ececec; stroke-width: 1; }
    .trace { fill: none; stroke: #222; stroke-width: 1.6; stroke-linejoin: round; }
    .name  { font: 600 13px/1.2 system-ui, sans-serif; fill: #222; }
    .sub   { font: 11px/1.2 system-ui, sans-serif; fill: #777; }
    .axlab { font: 600 11px/1.2 system-ui, sans-serif; fill: #555; }
    @media (prefers-color-scheme: dark) {
      .frame { stroke: #3a3a3a; }
      .axis  { stroke: #2c2c2c; }
      .trace { stroke: #e8e8e8; }
      .name  { fill: #e8e8e8; }
      .sub   { fill: #999; }
      .axlab { fill: #aaa; }
    }
  </style>

  <text class="name" x="74" y="22">PWM</text>
  <text class="sub" x="74" y="38">SHP is the pulse width, MOD the envelope</text>
  <text class="axlab" x="149" y="54" text-anchor="middle">MOD -1.0</text>
  <text class="axlab" x="313" y="54" text-anchor="middle">MOD -0.5</text>
  <text class="axlab" x="477" y="54" text-anchor="middle">MOD +0.0</text>
  <text class="axlab" x="641" y="54" text-anchor="middle">MOD +0.5</text>
  <text class="axlab" x="805" y="54" text-anchor="middle">MOD +1.0</text>
  <text class="axlab" x="64" y="105" text-anchor="end">SHP -1.0</text>
  <rect class="frame" x="74" y="62" width="150" height="78" rx="3"/>
  <line class="axis" x1="74" y1="101.0" x2="224" y2="101.0"/>
  <polyline class="trace" points="74.0,62.0 75.2,111.0 76.3,136.3 77.5,140.0 78.7,140.0 79.9,140.0 81.0,140.0 82.2,140.0 83.4,140.0 84.5,140.0 85.7,140.0 86.9,140.0 88.1,140.0 89.2,140.0 90.4,140.0 91.6,140.0 92.8,140.0 93.9,140.0 95.1,140.0 96.3,140.0 97.4,140.0 98.6,140.0 99.8,140.0 101.0,140.0 102.1,140.0 103.3,140.0 104.5,140.0 105.6,140.0 106.8,140.0 108.0,140.0 109.2,140.0 110.3,140.0 111.5,140.0 112.7,140.0 113.8,140.0 115.0,140.0 116.2,140.0 117.4,140.0 118.5,140.0 119.7,140.0 120.9,140.0 122.0,140.0 123.2,140.0 124.4,140.0 125.6,140.0 126.7,140.0 127.9,140.0 129.1,140.0 130.2,140.0 131.4,140.0 132.6,140.0 133.8,140.0 134.9,140.0 136.1,140.0 137.3,140.0 138.5,140.0 139.6,140.0 140.8,140.0 142.0,140.0 143.1,140.0 144.3,140.0 145.5,140.0 146.7,140.0 147.8,140.0 149.0,140.0 150.2,140.0 151.3,140.0 152.5,140.0 153.7,140.0 154.9,140.0 156.0,140.0 157.2,140.0 158.4,140.0 159.5,140.0 160.7,140.0 161.9,140.0 163.1,140.0 164.2,140.0 165.4,140.0 166.6,140.0 167.8,140.0 168.9,140.0 170.1,140.0 171.3,140.0 172.4,140.0 173.6,140.0 174.8,140.0 176.0,140.0 177.1,140.0 178.3,140.0 179.5,140.0 180.6,140.0 181.8,140.0 183.0,140.0 184.2,140.0 185.3,140.0 186.5,140.0 187.7,140.0 188.8,140.0 190.0,140.0 191.2,140.0 192.4,140.0 193.5,140.0 194.7,140.0 195.9,140.0 197.0,140.0 198.2,140.0 199.4,140.0 200.6,140.0 201.7,140.0 202.9,140.0 204.1,140.0 205.2,140.0 206.4,140.0 207.6,140.0 208.8,140.0 209.9,140.0 211.1,140.0 212.3,140.0 213.5,140.0 214.6,140.0 215.8,140.0 217.0,140.0 218.1,140.0 219.3,140.0 220.5,140.0 221.7,140.0 222.8,140.0 224.0,62.0"/>
  <rect class="frame" x="238" y="62" width="150" height="78" rx="3"/>
  <line class="axis" x1="238" y1="101.0" x2="388" y2="101.0"/>
  <polyline class="trace" points="238.0,140.0 239.2,62.0 240.3,113.5 241.5,140.0 242.7,140.0 243.9,140.0 245.0,140.0 246.2,140.0 247.4,140.0 248.5,140.0 249.7,140.0 250.9,140.0 252.1,140.0 253.2,140.0 254.4,140.0 255.6,140.0 256.8,140.0 257.9,140.0 259.1,140.0 260.3,140.0 261.4,140.0 262.6,140.0 263.8,140.0 265.0,140.0 266.1,140.0 267.3,140.0 268.5,140.0 269.6,140.0 270.8,140.0 272.0,140.0 273.2,140.0 274.3,140.0 275.5,140.0 276.7,140.0 277.8,140.0 279.0,140.0 280.2,140.0 281.4,140.0 282.5,140.0 283.7,140.0 284.9,140.0 286.0,140.0 287.2,140.0 288.4,140.0 289.6,140.0 290.7,140.0 291.9,140.0 293.1,140.0 294.2,140.0 295.4,140.0 296.6,140.0 297.8,140.0 298.9,140.0 300.1,140.0 301.3,140.0 302.5,140.0 303.6,140.0 304.8,140.0 306.0,140.0 307.1,140.0 308.3,140.0 309.5,140.0 310.7,140.0 311.8,140.0 313.0,140.0 314.2,140.0 315.3,140.0 316.5,140.0 317.7,140.0 318.9,140.0 320.0,140.0 321.2,140.0 322.4,140.0 323.5,140.0 324.7,140.0 325.9,140.0 327.1,140.0 328.2,140.0 329.4,140.0 330.6,140.0 331.8,140.0 332.9,140.0 334.1,140.0 335.3,140.0 336.4,140.0 337.6,140.0 338.8,140.0 340.0,140.0 341.1,140.0 342.3,140.0 343.5,140.0 344.6,140.0 345.8,140.0 347.0,140.0 348.2,140.0 349.3,140.0 350.5,140.0 351.7,140.0 352.8,140.0 354.0,140.0 355.2,140.0 356.4,140.0 357.5,140.0 358.7,140.0 359.9,140.0 361.0,140.0 362.2,140.0 363.4,140.0 364.6,140.0 365.7,140.0 366.9,140.0 368.1,140.0 369.2,140.0 370.4,140.0 371.6,140.0 372.8,140.0 373.9,140.0 375.1,140.0 376.3,140.0 377.5,140.0 378.6,140.0 379.8,140.0 381.0,140.0 382.1,140.0 383.3,140.0 384.5,140.0 385.7,140.0 386.8,140.0 388.0,140.0"/>
  <rect class="frame" x="402" y="62" width="150" height="78" rx="3"/>
  <line class="axis" x1="402" y1="101.0" x2="552" y2="101.0"/>
  <polyline class="trace" points="402.0,62.0 403.2,62.0 404.3,62.0 405.5,140.0 406.7,140.0 407.9,140.0 409.0,140.0 410.2,140.0 411.4,140.0 412.5,140.0 413.7,140.0 414.9,140.0 416.1,140.0 417.2,140.0 418.4,140.0 419.6,140.0 420.8,140.0 421.9,140.0 423.1,140.0 424.3,140.0 425.4,140.0 426.6,140.0 427.8,140.0 429.0,140.0 430.1,140.0 431.3,140.0 432.5,140.0 433.6,140.0 434.8,140.0 436.0,140.0 437.2,140.0 438.3,140.0 439.5,140.0 440.7,140.0 441.8,140.0 443.0,140.0 444.2,140.0 445.4,140.0 446.5,140.0 447.7,140.0 448.9,140.0 450.0,140.0 451.2,140.0 452.4,140.0 453.6,140.0 454.7,140.0 455.9,140.0 457.1,140.0 458.2,140.0 459.4,140.0 460.6,140.0 461.8,140.0 462.9,140.0 464.1,140.0 465.3,140.0 466.5,140.0 467.6,140.0 468.8,140.0 470.0,140.0 471.1,140.0 472.3,140.0 473.5,140.0 474.7,140.0 475.8,140.0 477.0,140.0 478.2,140.0 479.3,140.0 480.5,140.0 481.7,140.0 482.9,140.0 484.0,140.0 485.2,140.0 486.4,140.0 487.5,140.0 488.7,140.0 489.9,140.0 491.1,140.0 492.2,140.0 493.4,140.0 494.6,140.0 495.8,140.0 496.9,140.0 498.1,140.0 499.3,140.0 500.4,140.0 501.6,140.0 502.8,140.0 504.0,140.0 505.1,140.0 506.3,140.0 507.5,140.0 508.6,140.0 509.8,140.0 511.0,140.0 512.2,140.0 513.3,140.0 514.5,140.0 515.7,140.0 516.8,140.0 518.0,140.0 519.2,140.0 520.4,140.0 521.5,140.0 522.7,140.0 523.9,140.0 525.0,140.0 526.2,140.0 527.4,140.0 528.6,140.0 529.7,140.0 530.9,140.0 532.1,140.0 533.2,140.0 534.4,140.0 535.6,140.0 536.8,140.0 537.9,140.0 539.1,140.0 540.3,140.0 541.5,140.0 542.6,140.0 543.8,140.0 545.0,140.0 546.1,140.0 547.3,140.0 548.5,140.0 549.7,140.0 550.8,140.0 552.0,62.0"/>
  <rect class="frame" x="566" y="62" width="150" height="78" rx="3"/>
  <line class="axis" x1="566" y1="101.0" x2="716" y2="101.0"/>
  <polyline class="trace" points="566.0,140.0 567.2,62.0 568.3,62.0 569.5,140.0 570.7,140.0 571.9,140.0 573.0,140.0 574.2,140.0 575.4,140.0 576.5,140.0 577.7,140.0 578.9,140.0 580.1,140.0 581.2,140.0 582.4,140.0 583.6,140.0 584.8,140.0 585.9,140.0 587.1,140.0 588.3,140.0 589.4,140.0 590.6,140.0 591.8,140.0 593.0,140.0 594.1,140.0 595.3,140.0 596.5,140.0 597.6,140.0 598.8,140.0 600.0,140.0 601.2,140.0 602.3,140.0 603.5,140.0 604.7,140.0 605.8,140.0 607.0,140.0 608.2,140.0 609.4,140.0 610.5,140.0 611.7,140.0 612.9,140.0 614.0,140.0 615.2,140.0 616.4,140.0 617.6,140.0 618.7,140.0 619.9,140.0 621.1,140.0 622.2,140.0 623.4,140.0 624.6,140.0 625.8,140.0 626.9,140.0 628.1,140.0 629.3,140.0 630.5,140.0 631.6,140.0 632.8,140.0 634.0,140.0 635.1,140.0 636.3,140.0 637.5,140.0 638.7,140.0 639.8,140.0 641.0,140.0 642.2,140.0 643.3,140.0 644.5,140.0 645.7,140.0 646.9,140.0 648.0,140.0 649.2,140.0 650.4,140.0 651.5,140.0 652.7,140.0 653.9,140.0 655.1,140.0 656.2,140.0 657.4,140.0 658.6,140.0 659.8,140.0 660.9,140.0 662.1,140.0 663.3,140.0 664.4,140.0 665.6,140.0 666.8,140.0 668.0,140.0 669.1,140.0 670.3,140.0 671.5,140.0 672.6,140.0 673.8,140.0 675.0,140.0 676.2,140.0 677.3,140.0 678.5,140.0 679.7,140.0 680.8,140.0 682.0,140.0 683.2,140.0 684.4,140.0 685.5,140.0 686.7,140.0 687.9,140.0 689.0,140.0 690.2,140.0 691.4,140.0 692.6,140.0 693.7,140.0 694.9,140.0 696.1,140.0 697.2,140.0 698.4,140.0 699.6,140.0 700.8,140.0 701.9,140.0 703.1,140.0 704.3,140.0 705.5,140.0 706.6,140.0 707.8,140.0 709.0,140.0 710.1,140.0 711.3,140.0 712.5,140.0 713.7,140.0 714.8,140.0 716.0,140.0"/>
  <rect class="frame" x="730" y="62" width="150" height="78" rx="3"/>
  <line class="axis" x1="730" y1="101.0" x2="880" y2="101.0"/>
  <polyline class="trace" points="730.0,140.0 731.2,91.0 732.3,65.7 733.5,140.0 734.7,140.0 735.9,140.0 737.0,140.0 738.2,140.0 739.4,140.0 740.5,140.0 741.7,140.0 742.9,140.0 744.1,140.0 745.2,140.0 746.4,140.0 747.6,140.0 748.8,140.0 749.9,140.0 751.1,140.0 752.3,140.0 753.4,140.0 754.6,140.0 755.8,140.0 757.0,140.0 758.1,140.0 759.3,140.0 760.5,140.0 761.6,140.0 762.8,140.0 764.0,140.0 765.2,140.0 766.3,140.0 767.5,140.0 768.7,140.0 769.8,140.0 771.0,140.0 772.2,140.0 773.4,140.0 774.5,140.0 775.7,140.0 776.9,140.0 778.0,140.0 779.2,140.0 780.4,140.0 781.6,140.0 782.7,140.0 783.9,140.0 785.1,140.0 786.2,140.0 787.4,140.0 788.6,140.0 789.8,140.0 790.9,140.0 792.1,140.0 793.3,140.0 794.5,140.0 795.6,140.0 796.8,140.0 798.0,140.0 799.1,140.0 800.3,140.0 801.5,140.0 802.7,140.0 803.8,140.0 805.0,140.0 806.2,140.0 807.3,140.0 808.5,140.0 809.7,140.0 810.9,140.0 812.0,140.0 813.2,140.0 814.4,140.0 815.5,140.0 816.7,140.0 817.9,140.0 819.1,140.0 820.2,140.0 821.4,140.0 822.6,140.0 823.8,140.0 824.9,140.0 826.1,140.0 827.3,140.0 828.4,140.0 829.6,140.0 830.8,140.0 832.0,140.0 833.1,140.0 834.3,140.0 835.5,140.0 836.6,140.0 837.8,140.0 839.0,140.0 840.2,140.0 841.3,140.0 842.5,140.0 843.7,140.0 844.8,140.0 846.0,140.0 847.2,140.0 848.4,140.0 849.5,140.0 850.7,140.0 851.9,140.0 853.0,140.0 854.2,140.0 855.4,140.0 856.6,140.0 857.7,140.0 858.9,140.0 860.1,140.0 861.2,140.0 862.4,140.0 863.6,140.0 864.8,140.0 865.9,140.0 867.1,140.0 868.3,140.0 869.5,140.0 870.6,140.0 871.8,140.0 873.0,140.0 874.1,140.0 875.3,140.0 876.5,140.0 877.7,140.0 878.8,140.0 880.0,140.0"/>
  <text class="axlab" x="64" y="197" text-anchor="end">SHP -0.5</text>
  <rect class="frame" x="74" y="154" width="150" height="78" rx="3"/>
  <line class="axis" x1="74" y1="193.0" x2="224" y2="193.0"/>
  <polyline class="trace" points="74.0,154.0 75.2,158.6 76.3,163.1 77.5,167.4 78.7,171.6 79.9,175.7 81.0,179.6 82.2,183.4 83.4,187.0 84.5,190.5 85.7,193.8 86.9,197.0 88.1,200.1 89.2,203.0 90.4,205.8 91.6,208.5 92.8,211.0 93.9,213.3 95.1,215.6 96.3,217.6 97.4,219.6 98.6,221.4 99.8,223.0 101.0,224.6 102.1,225.9 103.3,227.2 104.5,228.3 105.6,229.2 106.8,230.0 108.0,230.7 109.2,231.2 110.3,231.6 111.5,231.9 112.7,232.0 113.8,232.0 115.0,232.0 116.2,232.0 117.4,232.0 118.5,232.0 119.7,232.0 120.9,232.0 122.0,232.0 123.2,232.0 124.4,232.0 125.6,232.0 126.7,232.0 127.9,232.0 129.1,232.0 130.2,232.0 131.4,232.0 132.6,232.0 133.8,232.0 134.9,232.0 136.1,232.0 137.3,232.0 138.5,232.0 139.6,232.0 140.8,232.0 142.0,232.0 143.1,232.0 144.3,232.0 145.5,232.0 146.7,232.0 147.8,232.0 149.0,232.0 150.2,232.0 151.3,232.0 152.5,232.0 153.7,232.0 154.9,232.0 156.0,232.0 157.2,232.0 158.4,232.0 159.5,232.0 160.7,232.0 161.9,232.0 163.1,232.0 164.2,232.0 165.4,232.0 166.6,232.0 167.8,232.0 168.9,232.0 170.1,232.0 171.3,232.0 172.4,232.0 173.6,232.0 174.8,232.0 176.0,232.0 177.1,232.0 178.3,232.0 179.5,232.0 180.6,232.0 181.8,232.0 183.0,232.0 184.2,232.0 185.3,232.0 186.5,232.0 187.7,232.0 188.8,232.0 190.0,232.0 191.2,232.0 192.4,232.0 193.5,232.0 194.7,232.0 195.9,232.0 197.0,232.0 198.2,232.0 199.4,232.0 200.6,232.0 201.7,232.0 202.9,232.0 204.1,232.0 205.2,232.0 206.4,232.0 207.6,232.0 208.8,232.0 209.9,232.0 211.1,232.0 212.3,232.0 213.5,232.0 214.6,232.0 215.8,232.0 217.0,232.0 218.1,232.0 219.3,232.0 220.5,232.0 221.7,232.0 222.8,232.0 224.0,154.0"/>
  <rect class="frame" x="238" y="154" width="150" height="78" rx="3"/>
  <line class="axis" x1="238" y1="193.0" x2="388" y2="193.0"/>
  <polyline class="trace" points="238.0,232.0 239.2,199.0 240.3,175.0 241.5,160.1 242.7,154.1 243.9,154.0 245.0,154.0 246.2,154.0 247.4,154.0 248.5,154.0 249.7,154.0 250.9,154.0 252.1,154.0 253.2,154.0 254.4,154.0 255.6,154.0 256.8,154.0 257.9,154.0 259.1,154.0 260.3,154.0 261.4,154.0 262.6,156.5 263.8,168.3 265.0,179.1 266.1,188.9 267.3,197.7 268.5,205.5 269.6,212.3 270.8,218.0 272.0,222.8 273.2,226.6 274.3,229.4 275.5,231.2 276.7,232.0 277.8,232.0 279.0,232.0 280.2,232.0 281.4,232.0 282.5,232.0 283.7,232.0 284.9,232.0 286.0,232.0 287.2,232.0 288.4,232.0 289.6,232.0 290.7,232.0 291.9,232.0 293.1,232.0 294.2,232.0 295.4,232.0 296.6,232.0 297.8,232.0 298.9,232.0 300.1,232.0 301.3,232.0 302.5,232.0 303.6,232.0 304.8,232.0 306.0,232.0 307.1,232.0 308.3,232.0 309.5,232.0 310.7,232.0 311.8,232.0 313.0,232.0 314.2,232.0 315.3,232.0 316.5,232.0 317.7,232.0 318.9,232.0 320.0,232.0 321.2,232.0 322.4,232.0 323.5,232.0 324.7,232.0 325.9,232.0 327.1,232.0 328.2,232.0 329.4,232.0 330.6,232.0 331.8,232.0 332.9,232.0 334.1,232.0 335.3,232.0 336.4,232.0 337.6,232.0 338.8,232.0 340.0,232.0 341.1,232.0 342.3,232.0 343.5,232.0 344.6,232.0 345.8,232.0 347.0,232.0 348.2,232.0 349.3,232.0 350.5,232.0 351.7,232.0 352.8,232.0 354.0,232.0 355.2,232.0 356.4,232.0 357.5,232.0 358.7,232.0 359.9,232.0 361.0,232.0 362.2,232.0 363.4,232.0 364.6,232.0 365.7,232.0 366.9,232.0 368.1,232.0 369.2,232.0 370.4,232.0 371.6,232.0 372.8,232.0 373.9,232.0 375.1,232.0 376.3,232.0 377.5,232.0 378.6,232.0 379.8,232.0 381.0,232.0 382.1,232.0 383.3,232.0 384.5,232.0 385.7,232.0 386.8,232.0 388.0,232.0"/>
  <rect class="frame" x="402" y="154" width="150" height="78" rx="3"/>
  <line class="axis" x1="402" y1="193.0" x2="552" y2="193.0"/>
  <polyline class="trace" points="402.0,154.0 403.2,154.0 404.3,154.0 405.5,154.0 406.7,154.0 407.9,154.0 409.0,154.0 410.2,154.0 411.4,154.0 412.5,154.0 413.7,154.0 414.9,154.0 416.1,154.0 417.2,154.0 418.4,154.0 419.6,154.0 420.8,154.0 421.9,154.0 423.1,154.0 424.3,154.0 425.4,154.0 426.6,154.0 427.8,154.0 429.0,154.0 430.1,154.0 431.3,154.0 432.5,154.0 433.6,154.0 434.8,154.0 436.0,154.0 437.2,154.0 438.3,154.0 439.5,154.0 440.7,154.0 441.8,232.0 443.0,232.0 444.2,232.0 445.4,232.0 446.5,232.0 447.7,232.0 448.9,232.0 450.0,232.0 451.2,232.0 452.4,232.0 453.6,232.0 454.7,232.0 455.9,232.0 457.1,232.0 458.2,232.0 459.4,232.0 460.6,232.0 461.8,232.0 462.9,232.0 464.1,232.0 465.3,232.0 466.5,232.0 467.6,232.0 468.8,232.0 470.0,232.0 471.1,232.0 472.3,232.0 473.5,232.0 474.7,232.0 475.8,232.0 477.0,232.0 478.2,232.0 479.3,232.0 480.5,232.0 481.7,232.0 482.9,232.0 484.0,232.0 485.2,232.0 486.4,232.0 487.5,232.0 488.7,232.0 489.9,232.0 491.1,232.0 492.2,232.0 493.4,232.0 494.6,232.0 495.8,232.0 496.9,232.0 498.1,232.0 499.3,232.0 500.4,232.0 501.6,232.0 502.8,232.0 504.0,232.0 505.1,232.0 506.3,232.0 507.5,232.0 508.6,232.0 509.8,232.0 511.0,232.0 512.2,232.0 513.3,232.0 514.5,232.0 515.7,232.0 516.8,232.0 518.0,232.0 519.2,232.0 520.4,232.0 521.5,232.0 522.7,232.0 523.9,232.0 525.0,232.0 526.2,232.0 527.4,232.0 528.6,232.0 529.7,232.0 530.9,232.0 532.1,232.0 533.2,232.0 534.4,232.0 535.6,232.0 536.8,232.0 537.9,232.0 539.1,232.0 540.3,232.0 541.5,232.0 542.6,232.0 543.8,232.0 545.0,232.0 546.1,232.0 547.3,232.0 548.5,232.0 549.7,232.0 550.8,232.0 552.0,154.0"/>
  <rect class="frame" x="566" y="154" width="150" height="78" rx="3"/>
  <line class="axis" x1="566" y1="193.0" x2="716" y2="193.0"/>
  <polyline class="trace" points="566.0,232.0 567.2,220.0 568.3,209.0 569.5,199.0 570.7,190.0 571.9,182.0 573.0,175.0 574.2,169.0 575.4,164.1 576.5,160.1 577.7,157.1 578.9,155.1 580.1,154.1 581.2,154.0 582.4,154.0 583.6,154.0 584.8,154.0 585.9,154.0 587.1,154.0 588.3,154.0 589.4,154.0 590.6,154.0 591.8,154.0 593.0,154.0 594.1,154.0 595.3,154.0 596.5,154.0 597.6,154.0 598.8,154.0 600.0,154.0 601.2,183.5 602.3,208.6 603.5,224.6 604.7,231.6 605.8,232.0 607.0,232.0 608.2,232.0 609.4,232.0 610.5,232.0 611.7,232.0 612.9,232.0 614.0,232.0 615.2,232.0 616.4,232.0 617.6,232.0 618.7,232.0 619.9,232.0 621.1,232.0 622.2,232.0 623.4,232.0 624.6,232.0 625.8,232.0 626.9,232.0 628.1,232.0 629.3,232.0 630.5,232.0 631.6,232.0 632.8,232.0 634.0,232.0 635.1,232.0 636.3,232.0 637.5,232.0 638.7,232.0 639.8,232.0 641.0,232.0 642.2,232.0 643.3,232.0 644.5,232.0 645.7,232.0 646.9,232.0 648.0,232.0 649.2,232.0 650.4,232.0 651.5,232.0 652.7,232.0 653.9,232.0 655.1,232.0 656.2,232.0 657.4,232.0 658.6,232.0 659.8,232.0 660.9,232.0 662.1,232.0 663.3,232.0 664.4,232.0 665.6,232.0 666.8,232.0 668.0,232.0 669.1,232.0 670.3,232.0 671.5,232.0 672.6,232.0 673.8,232.0 675.0,232.0 676.2,232.0 677.3,232.0 678.5,232.0 679.7,232.0 680.8,232.0 682.0,232.0 683.2,232.0 684.4,232.0 685.5,232.0 686.7,232.0 687.9,232.0 689.0,232.0 690.2,232.0 691.4,232.0 692.6,232.0 693.7,232.0 694.9,232.0 696.1,232.0 697.2,232.0 698.4,232.0 699.6,232.0 700.8,232.0 701.9,232.0 703.1,232.0 704.3,232.0 705.5,232.0 706.6,232.0 707.8,232.0 709.0,232.0 710.1,232.0 711.3,232.0 712.5,232.0 713.7,232.0 714.8,232.0 716.0,232.0"/>
  <rect class="frame" x="730" y="154" width="150" height="78" rx="3"/>
  <line class="axis" x1="730" y1="193.0" x2="880" y2="193.0"/>
  <polyline class="trace" points="730.0,232.0 731.2,227.4 732.3,222.9 733.5,218.6 734.7,214.4 735.9,210.3 737.0,206.4 738.2,202.6 739.4,199.0 740.5,195.5 741.7,192.2 742.9,189.0 744.1,185.9 745.2,183.0 746.4,180.2 747.6,177.5 748.8,175.0 749.9,172.7 751.1,170.4 752.3,168.4 753.4,166.4 754.6,164.6 755.8,163.0 757.0,161.4 758.1,160.1 759.3,158.8 760.5,157.7 761.6,156.8 762.8,156.0 764.0,155.3 765.2,154.8 766.3,154.4 767.5,154.1 768.7,154.0 769.8,232.0 771.0,232.0 772.2,232.0 773.4,232.0 774.5,232.0 775.7,232.0 776.9,232.0 778.0,232.0 779.2,232.0 780.4,232.0 781.6,232.0 782.7,232.0 783.9,232.0 785.1,232.0 786.2,232.0 787.4,232.0 788.6,232.0 789.8,232.0 790.9,232.0 792.1,232.0 793.3,232.0 794.5,232.0 795.6,232.0 796.8,232.0 798.0,232.0 799.1,232.0 800.3,232.0 801.5,232.0 802.7,232.0 803.8,232.0 805.0,232.0 806.2,232.0 807.3,232.0 808.5,232.0 809.7,232.0 810.9,232.0 812.0,232.0 813.2,232.0 814.4,232.0 815.5,232.0 816.7,232.0 817.9,232.0 819.1,232.0 820.2,232.0 821.4,232.0 822.6,232.0 823.8,232.0 824.9,232.0 826.1,232.0 827.3,232.0 828.4,232.0 829.6,232.0 830.8,232.0 832.0,232.0 833.1,232.0 834.3,232.0 835.5,232.0 836.6,232.0 837.8,232.0 839.0,232.0 840.2,232.0 841.3,232.0 842.5,232.0 843.7,232.0 844.8,232.0 846.0,232.0 847.2,232.0 848.4,232.0 849.5,232.0 850.7,232.0 851.9,232.0 853.0,232.0 854.2,232.0 855.4,232.0 856.6,232.0 857.7,232.0 858.9,232.0 860.1,232.0 861.2,232.0 862.4,232.0 863.6,232.0 864.8,232.0 865.9,232.0 867.1,232.0 868.3,232.0 869.5,232.0 870.6,232.0 871.8,232.0 873.0,232.0 874.1,232.0 875.3,232.0 876.5,232.0 877.7,232.0 878.8,232.0 880.0,232.0"/>
  <text class="axlab" x="64" y="289" text-anchor="end">SHP +0.0</text>
  <rect class="frame" x="74" y="246" width="150" height="78" rx="3"/>
  <line class="axis" x1="74" y1="285.0" x2="224" y2="285.0"/>
  <polyline class="trace" points="74.0,246.0 75.2,248.4 76.3,250.8 77.5,253.1 78.7,255.4 79.9,257.7 81.0,259.9 82.2,262.1 83.4,264.3 84.5,266.4 85.7,268.5 86.9,270.5 88.1,272.5 89.2,274.5 90.4,276.4 91.6,278.3 92.8,280.1 93.9,281.9 95.1,283.7 96.3,285.4 97.4,287.1 98.6,288.8 99.8,290.4 101.0,292.0 102.1,293.5 103.3,295.0 104.5,296.5 105.6,297.9 106.8,299.3 108.0,300.7 109.2,302.0 110.3,303.3 111.5,304.5 112.7,305.7 113.8,306.9 115.0,308.0 116.2,309.1 117.4,310.1 118.5,311.1 119.7,312.1 120.9,313.0 122.0,313.9 123.2,314.8 124.4,315.6 125.6,316.4 126.7,317.1 127.9,317.8 129.1,318.5 130.2,319.1 131.4,319.7 132.6,320.3 133.8,320.8 134.9,321.3 136.1,321.7 137.3,322.1 138.5,322.5 139.6,322.8 140.8,323.1 142.0,323.3 143.1,323.5 144.3,323.7 145.5,323.8 146.7,323.9 147.8,324.0 149.0,324.0 150.2,324.0 151.3,324.0 152.5,324.0 153.7,324.0 154.9,324.0 156.0,324.0 157.2,324.0 158.4,324.0 159.5,324.0 160.7,324.0 161.9,324.0 163.1,324.0 164.2,324.0 165.4,324.0 166.6,324.0 167.8,324.0 168.9,324.0 170.1,324.0 171.3,324.0 172.4,324.0 173.6,324.0 174.8,324.0 176.0,324.0 177.1,324.0 178.3,324.0 179.5,324.0 180.6,324.0 181.8,324.0 183.0,324.0 184.2,324.0 185.3,324.0 186.5,324.0 187.7,324.0 188.8,324.0 190.0,324.0 191.2,324.0 192.4,324.0 193.5,324.0 194.7,324.0 195.9,324.0 197.0,324.0 198.2,324.0 199.4,324.0 200.6,324.0 201.7,324.0 202.9,324.0 204.1,324.0 205.2,324.0 206.4,324.0 207.6,324.0 208.8,324.0 209.9,324.0 211.1,324.0 212.3,324.0 213.5,324.0 214.6,324.0 215.8,324.0 217.0,324.0 218.1,324.0 219.3,324.0 220.5,324.0 221.7,324.0 222.8,324.0 224.0,246.0"/>
  <rect class="frame" x="238" y="246" width="150" height="78" rx="3"/>
  <line class="axis" x1="238" y1="285.0" x2="388" y2="285.0"/>
  <polyline class="trace" points="238.0,324.0 239.2,305.7 240.3,289.9 241.5,276.5 242.7,265.5 243.9,257.0 245.0,250.9 246.2,247.2 247.4,246.0 248.5,246.0 249.7,246.0 250.9,246.0 252.1,246.0 253.2,246.0 254.4,246.0 255.6,246.0 256.8,246.0 257.9,246.0 259.1,246.0 260.3,246.0 261.4,246.0 262.6,246.0 263.8,246.0 265.0,246.0 266.1,246.0 267.3,246.0 268.5,246.0 269.6,246.0 270.8,246.0 272.0,246.0 273.2,246.0 274.3,246.0 275.5,246.0 276.7,246.0 277.8,246.0 279.0,246.0 280.2,246.0 281.4,246.0 282.5,246.0 283.7,246.0 284.9,246.0 286.0,252.4 287.2,258.5 288.4,264.3 289.6,269.8 290.7,275.1 291.9,280.1 293.1,284.9 294.2,289.3 295.4,293.5 296.6,297.5 297.8,301.1 298.9,304.5 300.1,307.6 301.3,310.5 302.5,313.0 303.6,315.3 304.8,317.4 306.0,319.1 307.1,320.6 308.3,321.8 309.5,322.8 310.7,323.5 311.8,323.9 313.0,324.0 314.2,324.0 315.3,324.0 316.5,324.0 317.7,324.0 318.9,324.0 320.0,324.0 321.2,324.0 322.4,324.0 323.5,324.0 324.7,324.0 325.9,324.0 327.1,324.0 328.2,324.0 329.4,324.0 330.6,324.0 331.8,324.0 332.9,324.0 334.1,324.0 335.3,324.0 336.4,324.0 337.6,324.0 338.8,324.0 340.0,324.0 341.1,324.0 342.3,324.0 343.5,324.0 344.6,324.0 345.8,324.0 347.0,324.0 348.2,324.0 349.3,324.0 350.5,324.0 351.7,324.0 352.8,324.0 354.0,324.0 355.2,324.0 356.4,324.0 357.5,324.0 358.7,324.0 359.9,324.0 361.0,324.0 362.2,324.0 363.4,324.0 364.6,324.0 365.7,324.0 366.9,324.0 368.1,324.0 369.2,324.0 370.4,324.0 371.6,324.0 372.8,324.0 373.9,324.0 375.1,324.0 376.3,324.0 377.5,324.0 378.6,324.0 379.8,324.0 381.0,324.0 382.1,324.0 383.3,324.0 384.5,324.0 385.7,324.0 386.8,324.0 388.0,324.0"/>
  <rect class="frame" x="402" y="246" width="150" height="78" rx="3"/>
  <line class="axis" x1="402" y1="285.0" x2="552" y2="285.0"/>
  <polyline class="trace" points="402.0,246.0 403.2,246.0 404.3,246.0 405.5,246.0 406.7,246.0 407.9,246.0 409.0,246.0 410.2,246.0 411.4,246.0 412.5,246.0 413.7,246.0 414.9,246.0 416.1,246.0 417.2,246.0 418.4,246.0 419.6,246.0 420.8,246.0 421.9,246.0 423.1,246.0 424.3,246.0 425.4,246.0 426.6,246.0 427.8,246.0 429.0,246.0 430.1,246.0 431.3,246.0 432.5,246.0 433.6,246.0 434.8,246.0 436.0,246.0 437.2,246.0 438.3,246.0 439.5,246.0 440.7,246.0 441.8,246.0 443.0,246.0 444.2,246.0 445.4,246.0 446.5,246.0 447.7,246.0 448.9,246.0 450.0,246.0 451.2,246.0 452.4,246.0 453.6,246.0 454.7,246.0 455.9,246.0 457.1,246.0 458.2,246.0 459.4,246.0 460.6,246.0 461.8,246.0 462.9,246.0 464.1,246.0 465.3,246.0 466.5,246.0 467.6,246.0 468.8,246.0 470.0,246.0 471.1,246.0 472.3,246.0 473.5,246.0 474.7,246.0 475.8,246.0 477.0,324.0 478.2,324.0 479.3,324.0 480.5,324.0 481.7,324.0 482.9,324.0 484.0,324.0 485.2,324.0 486.4,324.0 487.5,324.0 488.7,324.0 489.9,324.0 491.1,324.0 492.2,324.0 493.4,324.0 494.6,324.0 495.8,324.0 496.9,324.0 498.1,324.0 499.3,324.0 500.4,324.0 501.6,324.0 502.8,324.0 504.0,324.0 505.1,324.0 506.3,324.0 507.5,324.0 508.6,324.0 509.8,324.0 511.0,324.0 512.2,324.0 513.3,324.0 514.5,324.0 515.7,324.0 516.8,324.0 518.0,324.0 519.2,324.0 520.4,324.0 521.5,324.0 522.7,324.0 523.9,324.0 525.0,324.0 526.2,324.0 527.4,324.0 528.6,324.0 529.7,324.0 530.9,324.0 532.1,324.0 533.2,324.0 534.4,324.0 535.6,324.0 536.8,324.0 537.9,324.0 539.1,324.0 540.3,324.0 541.5,324.0 542.6,324.0 543.8,324.0 545.0,324.0 546.1,324.0 547.3,324.0 548.5,324.0 549.7,324.0 550.8,324.0 552.0,246.0"/>
  <rect class="frame" x="566" y="246" width="150" height="78" rx="3"/>
  <line class="axis" x1="566" y1="285.0" x2="716" y2="285.0"/>
  <polyline class="trace" points="566.0,324.0 567.2,317.6 568.3,311.5 569.5,305.7 570.7,300.2 571.9,294.9 573.0,289.9 574.2,285.1 575.4,280.7 576.5,276.5 577.7,272.5 578.9,268.9 580.1,265.5 581.2,262.4 582.4,259.5 583.6,257.0 584.8,254.7 585.9,252.6 587.1,250.9 588.3,249.4 589.4,248.2 590.6,247.2 591.8,246.5 593.0,246.1 594.1,246.0 595.3,246.0 596.5,246.0 597.6,246.0 598.8,246.0 600.0,246.0 601.2,246.0 602.3,246.0 603.5,246.0 604.7,246.0 605.8,246.0 607.0,246.0 608.2,246.0 609.4,246.0 610.5,246.0 611.7,246.0 612.9,246.0 614.0,246.0 615.2,246.0 616.4,246.0 617.6,246.0 618.7,246.0 619.9,246.0 621.1,246.0 622.2,246.0 623.4,246.0 624.6,246.0 625.8,246.0 626.9,246.0 628.1,246.0 629.3,246.0 630.5,246.0 631.6,246.0 632.8,264.3 634.0,280.1 635.1,293.5 636.3,304.5 637.5,313.0 638.7,319.1 639.8,322.8 641.0,324.0 642.2,324.0 643.3,324.0 644.5,324.0 645.7,324.0 646.9,324.0 648.0,324.0 649.2,324.0 650.4,324.0 651.5,324.0 652.7,324.0 653.9,324.0 655.1,324.0 656.2,324.0 657.4,324.0 658.6,324.0 659.8,324.0 660.9,324.0 662.1,324.0 663.3,324.0 664.4,324.0 665.6,324.0 666.8,324.0 668.0,324.0 669.1,324.0 670.3,324.0 671.5,324.0 672.6,324.0 673.8,324.0 675.0,324.0 676.2,324.0 677.3,324.0 678.5,324.0 679.7,324.0 680.8,324.0 682.0,324.0 683.2,324.0 684.4,324.0 685.5,324.0 686.7,324.0 687.9,324.0 689.0,324.0 690.2,324.0 691.4,324.0 692.6,324.0 693.7,324.0 694.9,324.0 696.1,324.0 697.2,324.0 698.4,324.0 699.6,324.0 700.8,324.0 701.9,324.0 703.1,324.0 704.3,324.0 705.5,324.0 706.6,324.0 707.8,324.0 709.0,324.0 710.1,324.0 711.3,324.0 712.5,324.0 713.7,324.0 714.8,324.0 716.0,324.0"/>
  <rect class="frame" x="730" y="246" width="150" height="78" rx="3"/>
  <line class="axis" x1="730" y1="285.0" x2="880" y2="285.0"/>
  <polyline class="trace" points="730.0,324.0 731.2,321.6 732.3,319.2 733.5,316.9 734.7,314.6 735.9,312.3 737.0,310.1 738.2,307.9 739.4,305.7 740.5,303.6 741.7,301.5 742.9,299.5 744.1,297.5 745.2,295.5 746.4,293.6 747.6,291.7 748.8,289.9 749.9,288.1 751.1,286.3 752.3,284.6 753.4,282.9 754.6,281.2 755.8,279.6 757.0,278.0 758.1,276.5 759.3,275.0 760.5,273.5 761.6,272.1 762.8,270.7 764.0,269.3 765.2,268.0 766.3,266.7 767.5,265.5 768.7,264.3 769.8,263.1 771.0,262.0 772.2,260.9 773.4,259.9 774.5,258.9 775.7,257.9 776.9,257.0 778.0,256.1 779.2,255.2 780.4,254.4 781.6,253.6 782.7,252.9 783.9,252.2 785.1,251.5 786.2,250.9 787.4,250.3 788.6,249.7 789.8,249.2 790.9,248.7 792.1,248.3 793.3,247.9 794.5,247.5 795.6,247.2 796.8,246.9 798.0,246.7 799.1,246.5 800.3,246.3 801.5,246.2 802.7,246.1 803.8,246.0 805.0,324.0 806.2,324.0 807.3,324.0 808.5,324.0 809.7,324.0 810.9,324.0 812.0,324.0 813.2,324.0 814.4,324.0 815.5,324.0 816.7,324.0 817.9,324.0 819.1,324.0 820.2,324.0 821.4,324.0 822.6,324.0 823.8,324.0 824.9,324.0 826.1,324.0 827.3,324.0 828.4,324.0 829.6,324.0 830.8,324.0 832.0,324.0 833.1,324.0 834.3,324.0 835.5,324.0 836.6,324.0 837.8,324.0 839.0,324.0 840.2,324.0 841.3,324.0 842.5,324.0 843.7,324.0 844.8,324.0 846.0,324.0 847.2,324.0 848.4,324.0 849.5,324.0 850.7,324.0 851.9,324.0 853.0,324.0 854.2,324.0 855.4,324.0 856.6,324.0 857.7,324.0 858.9,324.0 860.1,324.0 861.2,324.0 862.4,324.0 863.6,324.0 864.8,324.0 865.9,324.0 867.1,324.0 868.3,324.0 869.5,324.0 870.6,324.0 871.8,324.0 873.0,324.0 874.1,324.0 875.3,324.0 876.5,324.0 877.7,324.0 878.8,324.0 880.0,324.0"/>
  <text class="axlab" x="64" y="381" text-anchor="end">SHP +0.5</text>
  <rect class="frame" x="74" y="338" width="150" height="78" rx="3"/>
  <line class="axis" x1="74" y1="377.0" x2="224" y2="377.0"/>
  <polyline class="trace" points="74.0,338.0 75.2,339.6 76.3,341.3 77.5,342.9 78.7,344.5 79.9,346.0 81.0,347.6 82.2,349.1 83.4,350.6 84.5,352.1 85.7,353.6 86.9,355.1 88.1,356.5 89.2,357.9 90.4,359.4 91.6,360.7 92.8,362.1 93.9,363.5 95.1,364.8 96.3,366.2 97.4,367.5 98.6,368.8 99.8,370.0 101.0,371.3 102.1,372.5 103.3,373.7 104.5,374.9 105.6,376.1 106.8,377.3 108.0,378.5 109.2,379.6 110.3,380.7 111.5,381.8 112.7,382.9 113.8,383.9 115.0,385.0 116.2,386.0 117.4,387.0 118.5,388.0 119.7,389.0 120.9,390.0 122.0,390.9 123.2,391.8 124.4,392.7 125.6,393.6 126.7,394.5 127.9,395.4 129.1,396.2 130.2,397.0 131.4,397.8 132.6,398.6 133.8,399.4 134.9,400.1 136.1,400.9 137.3,401.6 138.5,402.3 139.6,403.0 140.8,403.6 142.0,404.3 143.1,404.9 144.3,405.5 145.5,406.1 146.7,406.7 147.8,407.3 149.0,407.8 150.2,408.3 151.3,408.8 152.5,409.3 153.7,409.8 154.9,410.2 156.0,410.7 157.2,411.1 158.4,411.5 159.5,411.9 160.7,412.3 161.9,412.6 163.1,413.0 164.2,413.3 165.4,413.6 166.6,413.9 167.8,414.1 168.9,414.4 170.1,414.6 171.3,414.8 172.4,415.0 173.6,415.2 174.8,415.3 176.0,415.5 177.1,415.6 178.3,415.7 179.5,415.8 180.6,415.9 181.8,415.9 183.0,416.0 184.2,416.0 185.3,416.0 186.5,416.0 187.7,416.0 188.8,416.0 190.0,416.0 191.2,416.0 192.4,416.0 193.5,416.0 194.7,416.0 195.9,416.0 197.0,416.0 198.2,416.0 199.4,416.0 200.6,416.0 201.7,416.0 202.9,416.0 204.1,416.0 205.2,416.0 206.4,416.0 207.6,416.0 208.8,416.0 209.9,416.0 211.1,416.0 212.3,416.0 213.5,416.0 214.6,416.0 215.8,416.0 217.0,416.0 218.1,416.0 219.3,416.0 220.5,416.0 221.7,416.0 222.8,416.0 224.0,338.0"/>
  <rect class="frame" x="238" y="338" width="150" height="78" rx="3"/>
  <line class="axis" x1="238" y1="377.0" x2="388" y2="377.0"/>
  <polyline class="trace" points="238.0,416.0 239.2,403.4 240.3,391.9 241.5,381.5 242.7,372.2 243.9,364.0 245.0,357.0 246.2,351.0 247.4,346.2 248.5,342.5 249.7,339.9 250.9,338.4 252.1,338.0 253.2,338.0 254.4,338.0 255.6,338.0 256.8,338.0 257.9,338.0 259.1,338.0 260.3,338.0 261.4,338.0 262.6,338.0 263.8,338.0 265.0,338.0 266.1,338.0 267.3,338.0 268.5,338.0 269.6,338.0 270.8,338.0 272.0,338.0 273.2,338.0 274.3,338.0 275.5,338.0 276.7,338.0 277.8,338.0 279.0,338.0 280.2,338.0 281.4,338.0 282.5,338.0 283.7,338.0 284.9,338.0 286.0,338.0 287.2,338.0 288.4,338.0 289.6,338.0 290.7,338.0 291.9,338.0 293.1,338.0 294.2,338.0 295.4,338.0 296.6,338.0 297.8,338.0 298.9,338.0 300.1,338.0 301.3,338.0 302.5,338.0 303.6,338.0 304.8,338.0 306.0,338.0 307.1,338.0 308.3,341.5 309.5,345.7 310.7,349.8 311.8,353.8 313.0,357.7 314.2,361.4 315.3,365.0 316.5,368.5 317.7,371.9 318.9,375.1 320.0,378.2 321.2,381.2 322.4,384.1 323.5,386.8 324.7,389.5 325.9,392.0 327.1,394.3 328.2,396.6 329.4,398.7 330.6,400.7 331.8,402.6 332.9,404.4 334.1,406.0 335.3,407.5 336.4,408.9 337.6,410.2 338.8,411.3 340.0,412.3 341.1,413.2 342.3,414.0 343.5,414.6 344.6,415.1 345.8,415.5 347.0,415.8 348.2,416.0 349.3,416.0 350.5,416.0 351.7,416.0 352.8,416.0 354.0,416.0 355.2,416.0 356.4,416.0 357.5,416.0 358.7,416.0 359.9,416.0 361.0,416.0 362.2,416.0 363.4,416.0 364.6,416.0 365.7,416.0 366.9,416.0 368.1,416.0 369.2,416.0 370.4,416.0 371.6,416.0 372.8,416.0 373.9,416.0 375.1,416.0 376.3,416.0 377.5,416.0 378.6,416.0 379.8,416.0 381.0,416.0 382.1,416.0 383.3,416.0 384.5,416.0 385.7,416.0 386.8,416.0 388.0,416.0"/>
  <rect class="frame" x="402" y="338" width="150" height="78" rx="3"/>
  <line class="axis" x1="402" y1="377.0" x2="552" y2="377.0"/>
  <polyline class="trace" points="402.0,338.0 403.2,338.0 404.3,338.0 405.5,338.0 406.7,338.0 407.9,338.0 409.0,338.0 410.2,338.0 411.4,338.0 412.5,338.0 413.7,338.0 414.9,338.0 416.1,338.0 417.2,338.0 418.4,338.0 419.6,338.0 420.8,338.0 421.9,338.0 423.1,338.0 424.3,338.0 425.4,338.0 426.6,338.0 427.8,338.0 429.0,338.0 430.1,338.0 431.3,338.0 432.5,338.0 433.6,338.0 434.8,338.0 436.0,338.0 437.2,338.0 438.3,338.0 439.5,338.0 440.7,338.0 441.8,338.0 443.0,338.0 444.2,338.0 445.4,338.0 446.5,338.0 447.7,338.0 448.9,338.0 450.0,338.0 451.2,338.0 452.4,338.0 453.6,338.0 454.7,338.0 455.9,338.0 457.1,338.0 458.2,338.0 459.4,338.0 460.6,338.0 461.8,338.0 462.9,338.0 464.1,338.0 465.3,338.0 466.5,338.0 467.6,338.0 468.8,338.0 470.0,338.0 471.1,338.0 472.3,338.0 473.5,338.0 474.7,338.0 475.8,338.0 477.0,338.0 478.2,338.0 479.3,338.0 480.5,338.0 481.7,338.0 482.9,338.0 484.0,338.0 485.2,338.0 486.4,338.0 487.5,338.0 488.7,338.0 489.9,338.0 491.1,338.0 492.2,338.0 493.4,338.0 494.6,338.0 495.8,338.0 496.9,338.0 498.1,338.0 499.3,338.0 500.4,338.0 501.6,338.0 502.8,338.0 504.0,338.0 505.1,338.0 506.3,338.0 507.5,338.0 508.6,338.0 509.8,338.0 511.0,338.0 512.2,338.0 513.3,416.0 514.5,416.0 515.7,416.0 516.8,416.0 518.0,416.0 519.2,416.0 520.4,416.0 521.5,416.0 522.7,416.0 523.9,416.0 525.0,416.0 526.2,416.0 527.4,416.0 528.6,416.0 529.7,416.0 530.9,416.0 532.1,416.0 533.2,416.0 534.4,416.0 535.6,416.0 536.8,416.0 537.9,416.0 539.1,416.0 540.3,416.0 541.5,416.0 542.6,416.0 543.8,416.0 545.0,416.0 546.1,416.0 547.3,416.0 548.5,416.0 549.7,416.0 550.8,416.0 552.0,338.0"/>
  <rect class="frame" x="566" y="338" width="150" height="78" rx="3"/>
  <line class="axis" x1="566" y1="377.0" x2="716" y2="377.0"/>
  <polyline class="trace" points="566.0,416.0 567.2,411.7 568.3,407.5 569.5,403.4 570.7,399.4 571.9,395.6 573.0,391.9 574.2,388.3 575.4,384.8 576.5,381.5 577.7,378.3 578.9,375.2 580.1,372.2 581.2,369.4 582.4,366.6 583.6,364.0 584.8,361.6 585.9,359.2 587.1,357.0 588.3,354.9 589.4,352.9 590.6,351.0 591.8,349.3 593.0,347.7 594.1,346.2 595.3,344.8 596.5,343.6 597.6,342.5 598.8,341.5 600.0,340.6 601.2,339.9 602.3,339.3 603.5,338.8 604.7,338.4 605.8,338.1 607.0,338.0 608.2,338.0 609.4,338.0 610.5,338.0 611.7,338.0 612.9,338.0 614.0,338.0 615.2,338.0 616.4,338.0 617.6,338.0 618.7,338.0 619.9,338.0 621.1,338.0 622.2,338.0 623.4,338.0 624.6,338.0 625.8,338.0 626.9,338.0 628.1,338.0 629.3,338.0 630.5,338.0 631.6,338.0 632.8,338.0 634.0,338.0 635.1,338.0 636.3,338.0 637.5,338.0 638.7,338.0 639.8,338.0 641.0,338.0 642.2,338.0 643.3,338.0 644.5,338.0 645.7,338.0 646.9,338.0 648.0,338.0 649.2,338.0 650.4,338.0 651.5,338.0 652.7,338.0 653.9,338.0 655.1,338.0 656.2,338.0 657.4,338.0 658.6,338.0 659.8,338.0 660.9,338.0 662.1,338.0 663.3,339.6 664.4,352.1 665.6,363.4 666.8,373.7 668.0,382.8 669.1,390.9 670.3,397.8 671.5,403.6 672.6,408.3 673.8,411.9 675.0,414.4 676.2,415.7 677.3,416.0 678.5,416.0 679.7,416.0 680.8,416.0 682.0,416.0 683.2,416.0 684.4,416.0 685.5,416.0 686.7,416.0 687.9,416.0 689.0,416.0 690.2,416.0 691.4,416.0 692.6,416.0 693.7,416.0 694.9,416.0 696.1,416.0 697.2,416.0 698.4,416.0 699.6,416.0 700.8,416.0 701.9,416.0 703.1,416.0 704.3,416.0 705.5,416.0 706.6,416.0 707.8,416.0 709.0,416.0 710.1,416.0 711.3,416.0 712.5,416.0 713.7,416.0 714.8,416.0 716.0,416.0"/>
  <rect class="frame" x="730" y="338" width="150" height="78" rx="3"/>
  <line class="axis" x1="730" y1="377.0" x2="880" y2="377.0"/>
  <polyline class="trace" points="730.0,416.0 731.2,414.4 732.3,412.7 733.5,411.1 734.7,409.5 735.9,408.0 737.0,406.4 738.2,404.9 739.4,403.4 740.5,401.9 741.7,400.4 742.9,398.9 744.1,397.5 745.2,396.1 746.4,394.6 747.6,393.3 748.8,391.9 749.9,390.5 751.1,389.2 752.3,387.8 753.4,386.5 754.6,385.2 755.8,384.0 757.0,382.7 758.1,381.5 759.3,380.3 760.5,379.1 761.6,377.9 762.8,376.7 764.0,375.5 765.2,374.4 766.3,373.3 767.5,372.2 768.7,371.1 769.8,370.1 771.0,369.0 772.2,368.0 773.4,367.0 774.5,366.0 775.7,365.0 776.9,364.0 778.0,363.1 779.2,362.2 780.4,361.3 781.6,360.4 782.7,359.5 783.9,358.6 785.1,357.8 786.2,357.0 787.4,356.2 788.6,355.4 789.8,354.6 790.9,353.9 792.1,353.1 793.3,352.4 794.5,351.7 795.6,351.0 796.8,350.4 798.0,349.7 799.1,349.1 800.3,348.5 801.5,347.9 802.7,347.3 803.8,346.7 805.0,346.2 806.2,345.7 807.3,345.2 808.5,344.7 809.7,344.2 810.9,343.8 812.0,343.3 813.2,342.9 814.4,342.5 815.5,342.1 816.7,341.7 817.9,341.4 819.1,341.0 820.2,340.7 821.4,340.4 822.6,340.1 823.8,339.9 824.9,339.6 826.1,339.4 827.3,339.2 828.4,339.0 829.6,338.8 830.8,338.7 832.0,338.5 833.1,338.4 834.3,338.3 835.5,338.2 836.6,338.1 837.8,338.1 839.0,338.0 840.2,338.0 841.3,416.0 842.5,416.0 843.7,416.0 844.8,416.0 846.0,416.0 847.2,416.0 848.4,416.0 849.5,416.0 850.7,416.0 851.9,416.0 853.0,416.0 854.2,416.0 855.4,416.0 856.6,416.0 857.7,416.0 858.9,416.0 860.1,416.0 861.2,416.0 862.4,416.0 863.6,416.0 864.8,416.0 865.9,416.0 867.1,416.0 868.3,416.0 869.5,416.0 870.6,416.0 871.8,416.0 873.0,416.0 874.1,416.0 875.3,416.0 876.5,416.0 877.7,416.0 878.8,416.0 880.0,416.0"/>
  <text class="axlab" x="64" y="473" text-anchor="end">SHP +1.0</text>
  <rect class="frame" x="74" y="430" width="150" height="78" rx="3"/>
  <line class="axis" x1="74" y1="469.0" x2="224" y2="469.0"/>
  <polyline class="trace" points="74.0,430.0 75.2,431.2 76.3,432.5 77.5,433.7 78.7,434.9 79.9,436.1 81.0,437.3 82.2,438.5 83.4,439.6 84.5,440.8 85.7,441.9 86.9,443.1 88.1,444.2 89.2,445.3 90.4,446.4 91.6,447.5 92.8,448.6 93.9,449.7 95.1,450.8 96.3,451.8 97.4,452.9 98.6,453.9 99.8,455.0 101.0,456.0 102.1,457.0 103.3,458.0 104.5,459.0 105.6,460.0 106.8,460.9 108.0,461.9 109.2,462.8 110.3,463.8 111.5,464.7 112.7,465.6 113.8,466.6 115.0,467.5 116.2,468.3 117.4,469.2 118.5,470.1 119.7,471.0 120.9,471.8 122.0,472.7 123.2,473.5 124.4,474.3 125.6,475.1 126.7,475.9 127.9,476.7 129.1,477.5 130.2,478.3 131.4,479.0 132.6,479.8 133.8,480.5 134.9,481.3 136.1,482.0 137.3,482.7 138.5,483.4 139.6,484.1 140.8,484.8 142.0,485.5 143.1,486.1 144.3,486.8 145.5,487.4 146.7,488.1 147.8,488.7 149.0,489.3 150.2,489.9 151.3,490.5 152.5,491.1 153.7,491.6 154.9,492.2 156.0,492.8 157.2,493.3 158.4,493.8 159.5,494.4 160.7,494.9 161.9,495.4 163.1,495.9 164.2,496.4 165.4,496.8 166.6,497.3 167.8,497.8 168.9,498.2 170.1,498.6 171.3,499.1 172.4,499.5 173.6,499.9 174.8,500.3 176.0,500.7 177.1,501.1 178.3,501.4 179.5,501.8 180.6,502.1 181.8,502.5 183.0,502.8 184.2,503.1 185.3,503.4 186.5,503.7 187.7,504.0 188.8,504.3 190.0,504.5 191.2,504.8 192.4,505.0 193.5,505.3 194.7,505.5 195.9,505.7 197.0,505.9 198.2,506.1 199.4,506.3 200.6,506.5 201.7,506.7 202.9,506.8 204.1,507.0 205.2,507.1 206.4,507.2 207.6,507.4 208.8,507.5 209.9,507.6 211.1,507.6 212.3,507.7 213.5,507.8 214.6,507.9 215.8,507.9 217.0,507.9 218.1,508.0 219.3,508.0 220.5,508.0 221.7,508.0 222.8,508.0 224.0,430.0"/>
  <rect class="frame" x="238" y="430" width="150" height="78" rx="3"/>
  <line class="axis" x1="238" y1="469.0" x2="388" y2="469.0"/>
  <polyline class="trace" points="238.0,508.0 239.2,498.4 240.3,489.4 241.5,481.0 242.7,473.3 243.9,466.2 245.0,459.7 246.2,453.9 247.4,448.7 248.5,444.2 249.7,440.2 250.9,436.9 252.1,434.3 253.2,432.3 254.4,430.9 255.6,430.1 256.8,430.0 257.9,430.0 259.1,430.0 260.3,430.0 261.4,430.0 262.6,430.0 263.8,430.0 265.0,430.0 266.1,430.0 267.3,430.0 268.5,430.0 269.6,430.0 270.8,430.0 272.0,430.0 273.2,430.0 274.3,430.0 275.5,430.0 276.7,430.0 277.8,430.0 279.0,430.0 280.2,430.0 281.4,430.0 282.5,430.0 283.7,430.0 284.9,430.0 286.0,430.0 287.2,430.0 288.4,430.0 289.6,430.0 290.7,430.0 291.9,430.0 293.1,430.0 294.2,430.0 295.4,430.0 296.6,430.0 297.8,430.0 298.9,430.0 300.1,430.0 301.3,430.0 302.5,430.0 303.6,430.0 304.8,430.0 306.0,430.0 307.1,430.0 308.3,430.0 309.5,430.0 310.7,430.0 311.8,430.0 313.0,430.0 314.2,430.0 315.3,430.0 316.5,430.0 317.7,430.0 318.9,430.0 320.0,430.0 321.2,430.0 322.4,430.0 323.5,430.0 324.7,430.0 325.9,430.0 327.1,430.0 328.2,430.0 329.4,430.0 330.6,432.0 331.8,435.2 332.9,438.4 334.1,441.5 335.3,444.5 336.4,447.5 337.6,450.4 338.8,453.2 340.0,455.9 341.1,458.6 342.3,461.2 343.5,463.7 344.6,466.2 345.8,468.6 347.0,470.9 348.2,473.2 349.3,475.3 350.5,477.4 351.7,479.5 352.8,481.5 354.0,483.4 355.2,485.2 356.4,486.9 357.5,488.6 358.7,490.3 359.9,491.8 361.0,493.3 362.2,494.7 363.4,496.0 364.6,497.3 365.7,498.5 366.9,499.6 368.1,500.6 369.2,501.6 370.4,502.5 371.6,503.4 372.8,504.2 373.9,504.9 375.1,505.5 376.3,506.1 377.5,506.5 378.6,507.0 379.8,507.3 381.0,507.6 382.1,507.8 383.3,507.9 384.5,508.0 385.7,508.0 386.8,508.0 388.0,508.0"/>
  <rect class="frame" x="402" y="430" width="150" height="78" rx="3"/>
  <line class="axis" x1="402" y1="469.0" x2="552" y2="469.0"/>
  <polyline class="trace" points="402.0,430.0 403.2,430.0 404.3,430.0 405.5,430.0 406.7,430.0 407.9,430.0 409.0,430.0 410.2,430.0 411.4,430.0 412.5,430.0 413.7,430.0 414.9,430.0 416.1,430.0 417.2,430.0 418.4,430.0 419.6,430.0 420.8,430.0 421.9,430.0 423.1,430.0 424.3,430.0 425.4,430.0 426.6,430.0 427.8,430.0 429.0,430.0 430.1,430.0 431.3,430.0 432.5,430.0 433.6,430.0 434.8,430.0 436.0,430.0 437.2,430.0 438.3,430.0 439.5,430.0 440.7,430.0 441.8,430.0 443.0,430.0 444.2,430.0 445.4,430.0 446.5,430.0 447.7,430.0 448.9,430.0 450.0,430.0 451.2,430.0 452.4,430.0 453.6,430.0 454.7,430.0 455.9,430.0 457.1,430.0 458.2,430.0 459.4,430.0 460.6,430.0 461.8,430.0 462.9,430.0 464.1,430.0 465.3,430.0 466.5,430.0 467.6,430.0 468.8,430.0 470.0,430.0 471.1,430.0 472.3,430.0 473.5,430.0 474.7,430.0 475.8,430.0 477.0,430.0 478.2,430.0 479.3,430.0 480.5,430.0 481.7,430.0 482.9,430.0 484.0,430.0 485.2,430.0 486.4,430.0 487.5,430.0 488.7,430.0 489.9,430.0 491.1,430.0 492.2,430.0 493.4,430.0 494.6,430.0 495.8,430.0 496.9,430.0 498.1,430.0 499.3,430.0 500.4,430.0 501.6,430.0 502.8,430.0 504.0,430.0 505.1,430.0 506.3,430.0 507.5,430.0 508.6,430.0 509.8,430.0 511.0,430.0 512.2,430.0 513.3,430.0 514.5,430.0 515.7,430.0 516.8,430.0 518.0,430.0 519.2,430.0 520.4,430.0 521.5,430.0 522.7,430.0 523.9,430.0 525.0,430.0 526.2,430.0 527.4,430.0 528.6,430.0 529.7,430.0 530.9,430.0 532.1,430.0 533.2,430.0 534.4,430.0 535.6,430.0 536.8,430.0 537.9,430.0 539.1,430.0 540.3,430.0 541.5,430.0 542.6,430.0 543.8,430.0 545.0,430.0 546.1,430.0 547.3,430.0 548.5,430.0 549.7,508.0 550.8,508.0 552.0,430.0"/>
  <rect class="frame" x="566" y="430" width="150" height="78" rx="3"/>
  <line class="axis" x1="566" y1="469.0" x2="716" y2="469.0"/>
  <polyline class="trace" points="566.0,508.0 567.2,504.7 568.3,501.5 569.5,498.4 570.7,495.3 571.9,492.3 573.0,489.4 574.2,486.5 575.4,483.7 576.5,481.0 577.7,478.4 578.9,475.8 580.1,473.3 581.2,470.8 582.4,468.5 583.6,466.2 584.8,464.0 585.9,461.8 587.1,459.7 588.3,457.7 589.4,455.8 590.6,453.9 591.8,452.1 593.0,450.4 594.1,448.7 595.3,447.1 596.5,445.6 597.6,444.2 598.8,442.8 600.0,441.5 601.2,440.2 602.3,439.1 603.5,438.0 604.7,436.9 605.8,436.0 607.0,435.1 608.2,434.3 609.4,433.6 610.5,432.9 611.7,432.3 612.9,431.7 614.0,431.3 615.2,430.9 616.4,430.6 617.6,430.3 618.7,430.1 619.9,430.0 621.1,430.0 622.2,430.0 623.4,430.0 624.6,430.0 625.8,430.0 626.9,430.0 628.1,430.0 629.3,430.0 630.5,430.0 631.6,430.0 632.8,430.0 634.0,430.0 635.1,430.0 636.3,430.0 637.5,430.0 638.7,430.0 639.8,430.0 641.0,430.0 642.2,430.0 643.3,430.0 644.5,430.0 645.7,430.0 646.9,430.0 648.0,430.0 649.2,430.0 650.4,430.0 651.5,430.0 652.7,430.0 653.9,430.0 655.1,430.0 656.2,430.0 657.4,430.0 658.6,430.0 659.8,430.0 660.9,430.0 662.1,430.0 663.3,430.0 664.4,430.0 665.6,430.0 666.8,430.0 668.0,430.0 669.1,430.0 670.3,430.0 671.5,430.0 672.6,430.0 673.8,430.0 675.0,430.0 676.2,430.0 677.3,430.0 678.5,430.0 679.7,430.0 680.8,430.0 682.0,430.0 683.2,430.0 684.4,430.0 685.5,430.0 686.7,430.0 687.9,430.0 689.0,430.0 690.2,430.0 691.4,430.0 692.6,430.0 693.7,430.0 694.9,432.4 696.1,441.8 697.2,450.7 698.4,458.9 699.6,466.5 700.8,473.4 701.9,479.7 703.1,485.4 704.3,490.4 705.5,494.8 706.6,498.6 707.8,501.7 709.0,504.2 710.1,506.1 711.3,507.3 712.5,507.9 713.7,508.0 714.8,508.0 716.0,508.0"/>
  <rect class="frame" x="730" y="430" width="150" height="78" rx="3"/>
  <line class="axis" x1="730" y1="469.0" x2="880" y2="469.0"/>
  <polyline class="trace" points="730.0,508.0 731.2,506.8 732.3,505.5 733.5,504.3 734.7,503.1 735.9,501.9 737.0,500.7 738.2,499.5 739.4,498.4 740.5,497.2 741.7,496.1 742.9,494.9 744.1,493.8 745.2,492.7 746.4,491.6 747.6,490.5 748.8,489.4 749.9,488.3 751.1,487.2 752.3,486.2 753.4,485.1 754.6,484.1 755.8,483.0 757.0,482.0 758.1,481.0 759.3,480.0 760.5,479.0 761.6,478.0 762.8,477.1 764.0,476.1 765.2,475.2 766.3,474.2 767.5,473.3 768.7,472.4 769.8,471.4 771.0,470.5 772.2,469.7 773.4,468.8 774.5,467.9 775.7,467.0 776.9,466.2 778.0,465.3 779.2,464.5 780.4,463.7 781.6,462.9 782.7,462.1 783.9,461.3 785.1,460.5 786.2,459.7 787.4,459.0 788.6,458.2 789.8,457.5 790.9,456.7 792.1,456.0 793.3,455.3 794.5,454.6 795.6,453.9 796.8,453.2 798.0,452.5 799.1,451.9 800.3,451.2 801.5,450.6 802.7,449.9 803.8,449.3 805.0,448.7 806.2,448.1 807.3,447.5 808.5,446.9 809.7,446.4 810.9,445.8 812.0,445.2 813.2,444.7 814.4,444.2 815.5,443.6 816.7,443.1 817.9,442.6 819.1,442.1 820.2,441.6 821.4,441.2 822.6,440.7 823.8,440.2 824.9,439.8 826.1,439.4 827.3,438.9 828.4,438.5 829.6,438.1 830.8,437.7 832.0,437.3 833.1,436.9 834.3,436.6 835.5,436.2 836.6,435.9 837.8,435.5 839.0,435.2 840.2,434.9 841.3,434.6 842.5,434.3 843.7,434.0 844.8,433.7 846.0,433.5 847.2,433.2 848.4,433.0 849.5,432.7 850.7,432.5 851.9,432.3 853.0,432.1 854.2,431.9 855.4,431.7 856.6,431.5 857.7,431.3 858.9,431.2 860.1,431.0 861.2,430.9 862.4,430.8 863.6,430.6 864.8,430.5 865.9,430.4 867.1,430.4 868.3,430.3 869.5,430.2 870.6,430.1 871.8,430.1 873.0,430.1 874.1,430.0 875.3,430.0 876.5,430.0 877.7,508.0 878.8,508.0 880.0,508.0"/>
</svg>
